  0
SECTION
  2
HEADER
  9
$ACADVER
  1
AC1018
  9
$ACADMAINTVER
 70
     0
  9
$DWGCODEPAGE
  3
ANSI_1252
  9
$INSBASE
 10
0.0
 20
0.0
 30
0.0
  9
$EXTMIN
 10
1.000000000000000E+20
 20
1.000000000000000E+20
 30
1.000000000000000E+20
  9
$EXTMAX
 10
-1.000000000000000E+20
 20
-1.000000000000000E+20
 30
-1.000000000000000E+20
  9
$LIMMIN
 10
0.0
 20
0.0
  9
$LIMMAX
 10
12.0
 20
9.0
  9
$ORTHOMODE
 70
     0
  9
$REGENMODE
 70
     1
  9
$FILLMODE
 70
     1
  9
$QTEXTMODE
 70
     0
  9
$MIRRTEXT
 70
     1
  9
$LTSCALE
 40
1.0
  9
$ATTMODE
 70
     1
  9
$TEXTSIZE
 40
0.2
  9
$TRACEWID
 40
0.05
  9
$TEXTSTYLE
  7
Standard
  9
$CLAYER
  8
0
  9
$CELTYPE
  6
ByLayer
  9
$CECOLOR
 62
   256
  9
$CELTSCALE
 40
1.0
  9
$DISPSILH
 70
     0
  9
$DIMSCALE
 40
1.0
  9
$DIMASZ
 40
0.18
  9
$DIMEXO
 40
0.0625
  9
$DIMDLI
 40
0.38
  9
$DIMRND
 40
0.0
  9
$DIMDLE
 40
0.0
  9
$DIMEXE
 40
0.18
  9
$DIMTP
 40
0.0
  9
$DIMTM
 40
0.0
  9
$DIMTXT
 40
0.18
  9
$DIMCEN
 40
0.09
  9
$DIMTSZ
 40
0.0
  9
$DIMTOL
 70
     0
  9
$DIMLIM
 70
     0
  9
$DIMTIH
 70
     1
  9
$DIMTOH
 70
     1
  9
$DIMSE1
 70
     0
  9
$DIMSE2
 70
     0
  9
$DIMTAD
 70
     0
  9
$DIMZIN
 70
     0
  9
$DIMBLK
  1

  9
$DIMASO
 70
     1
  9
$DIMSHO
 70
     1
  9
$DIMPOST
  1

  9
$DIMAPOST
  1

  9
$DIMALT
 70
     0
  9
$DIMALTD
 70
     2
  9
$DIMALTF
 40
25.4
  9
$DIMLFAC
 40
1.0
  9
$DIMTOFL
 70
     0
  9
$DIMTVP
 40
0.0
  9
$DIMTIX
 70
     0
  9
$DIMSOXD
 70
     0
  9
$DIMSAH
 70
     0
  9
$DIMBLK1
  1

  9
$DIMBLK2
  1

  9
$DIMSTYLE
  2
Standard
  9
$DIMCLRD
 70
     0
  9
$DIMCLRE
 70
     0
  9
$DIMCLRT
 70
     0
  9
$DIMTFAC
 40
1.0
  9
$DIMGAP
 40
0.09
  9
$DIMJUST
 70
     0
  9
$DIMSD1
 70
     0
  9
$DIMSD2
 70
     0
  9
$DIMTOLJ
 70
     1
  9
$DIMTZIN
 70
     0
  9
$DIMALTZ
 70
     0
  9
$DIMALTTZ
 70
     0
  9
$DIMUPT
 70
     0
  9
$DIMDEC
 70
     4
  9
$DIMTDEC
 70
     4
  9
$DIMALTU
 70
     2
  9
$DIMALTTD
 70
     2
  9
$DIMTXSTY
  7
Standard
  9
$DIMAUNIT
 70
     0
  9
$DIMADEC
 70
     0
  9
$DIMALTRND
 40
0.0
  9
$DIMAZIN
 70
     0
  9
$DIMDSEP
 70
    46
  9
$DIMATFIT
 70
     3
  9
$DIMFRAC
 70
     0
  9
$DIMLDRBLK
  1

  9
$DIMLUNIT
 70
     2
  9
$DIMLWD
 70
    -2
  9
$DIMLWE
 70
    -2
  9
$DIMTMOVE
 70
     0
  9
$LUNITS
 70
     2
  9
$LUPREC
 70
     4
  9
$SKETCHINC
 40
0.1
  9
$FILLETRAD
 40
0.5
  9
$AUNITS
 70
     0
  9
$AUPREC
 70
     0
  9
$MENU
  1
.
  9
$ELEVATION
 40
0.0
  9
$PELEVATION
 40
0.0
  9
$THICKNESS
 40
0.0
  9
$LIMCHECK
 70
     0
  9
$CHAMFERA
 40
0.5
  9
$CHAMFERB
 40
0.5
  9
$CHAMFERC
 40
1.0
  9
$CHAMFERD
 40
0.0
  9
$SKPOLY
 70
     0
  9
$TDCREATE
 40
2456863.627894433
  9
$TDUCREATE
 40
2456863.836227766
  9
$TDUPDATE
 40
2456863.627894444
  9
$TDUUPDATE
 40
2456863.836227778
  9
$TDINDWG
 40
0.0000000116
  9
$TDUSRTIMER
 40
0.0000000116
  9
$USRTIMER
 70
     1
  9
$ANGBASE
 50
0.0
  9
$ANGDIR
 70
     0
  9
$PDMODE
 70
     0
  9
$PDSIZE
 40
0.0
  9
$PLINEWID
 40
0.0
  9
$SPLFRAME
 70
     0
  9
$SPLINETYPE
 70
     6
  9
$SPLINESEGS
 70
     8
  9
$HANDSEED
  5
66
  9
$SURFTAB1
 70
     6
  9
$SURFTAB2
 70
     6
  9
$SURFTYPE
 70
     6
  9
$SURFU
 70
     6
  9
$SURFV
 70
     6
  9
$UCSBASE
  2

  9
$UCSNAME
  2

  9
$UCSORG
 10
0.0
 20
0.0
 30
0.0
  9
$UCSXDIR
 10
1.0
 20
0.0
 30
0.0
  9
$UCSYDIR
 10
0.0
 20
1.0
 30
0.0
  9
$UCSORTHOREF
  2

  9
$UCSORTHOVIEW
 70
     0
  9
$UCSORGTOP
 10
0.0
 20
0.0
 30
0.0
  9
$UCSORGBOTTOM
 10
0.0
 20
0.0
 30
0.0
  9
$UCSORGLEFT
 10
0.0
 20
0.0
 30
0.0
  9
$UCSORGRIGHT
 10
0.0
 20
0.0
 30
0.0
  9
$UCSORGFRONT
 10
0.0
 20
0.0
 30
0.0
  9
$UCSORGBACK
 10
0.0
 20
0.0
 30
0.0
  9
$PUCSBASE
  2

  9
$PUCSNAME
  2

  9
$PUCSORG
 10
0.0
 20
0.0
 30
0.0
  9
$PUCSXDIR
 10
1.0
 20
0.0
 30
0.0
  9
$PUCSYDIR
 10
0.0
 20
1.0
 30
0.0
  9
$PUCSORTHOREF
  2

  9
$PUCSORTHOVIEW
 70
     0
  9
$PUCSORGTOP
 10
0.0
 20
0.0
 30
0.0
  9
$PUCSORGBOTTOM
 10
0.0
 20
0.0
 30
0.0
  9
$PUCSORGLEFT
 10
0.0
 20
0.0
 30
0.0
  9
$PUCSORGRIGHT
 10
0.0
 20
0.0
 30
0.0
  9
$PUCSORGFRONT
 10
0.0
 20
0.0
 30
0.0
  9
$PUCSORGBACK
 10
0.0
 20
0.0
 30
0.0
  9
$USERI1
 70
     0
  9
$USERI2
 70
     0
  9
$USERI3
 70
     0
  9
$USERI4
 70
     0
  9
$USERI5
 70
     0
  9
$USERR1
 40
0.0
  9
$USERR2
 40
0.0
  9
$USERR3
 40
0.0
  9
$USERR4
 40
0.0
  9
$USERR5
 40
0.0
  9
$WORLDVIEW
 70
     1
  9
$SHADEDGE
 70
     3
  9
$SHADEDIF
 70
    70
  9
$TILEMODE
 70
     1
  9
$MAXACTVP
 70
    64
  9
$PINSBASE
 10
0.0
 20
0.0
 30
0.0
  9
$PLIMCHECK
 70
     0
  9
$PEXTMIN
 10
1.000000000000000E+20
 20
1.000000000000000E+20
 30
1.000000000000000E+20
  9
$PEXTMAX
 10
-1.000000000000000E+20
 20
-1.000000000000000E+20
 30
-1.000000000000000E+20
  9
$PLIMMIN
 10
0.0
 20
0.0
  9
$PLIMMAX
 10
12.0
 20
9.0
  9
$UNITMODE
 70
     0
  9
$VISRETAIN
 70
     1
  9
$PLINEGEN
 70
     0
  9
$PSLTSCALE
 70
     1
  9
$TREEDEPTH
 70
  3020
  9
$CMLSTYLE
  2
Standard
  9
$CMLJUST
 70
     0
  9
$CMLSCALE
 40
1.0
  9
$PROXYGRAPHICS
 70
     1
  9
$MEASUREMENT
 70
     0
  9
$CELWEIGHT
370
    -1
  9
$ENDCAPS
280
     0
  9
$JOINSTYLE
280
     0
  9
$LWDISPLAY
290
     1
  9
$INSUNITS
 70
     1
  9
$HYPERLINKBASE
  1

  9
$STYLESHEET
  1

  9
$XEDIT
290
     1
  9
$CEPSNTYPE
380
     0
  9
$PSTYLEMODE
290
     1
  9
$FINGERPRINTGUID
  2
{961151F2-14EE-4240-A9A3-8E034D582D09}
  9
$VERSIONGUID
  2
{FAEB1C32-E019-11D5-929B-00C0DF256EC4}
  9
$EXTNAMES
290
     1
  9
$PSVPSCALE
 40
0.0
  9
$OLESTARTUP
290
     0
  9
$SORTENTS
280
   127
  9
$INDEXCTL
280
     0
  9
$HIDETEXT
280
     1
  9
$XCLIPFRAME
290
     0
  9
$HALOGAP
280
     0
  9
$OBSCOLOR
 70
   257
  9
$OBSLTYPE
280
     0
  9
$INTERSECTIONDISPLAY
280
     0
  9
$INTERSECTIONCOLOR
 70
   257
  9
$DIMASSOC
280
     2
  9
$PROJECTNAME
  1

  0
ENDSEC
  0
SECTION
  2
CLASSES
  0
CLASS
  1
ACDBDICTIONARYWDFLT
  2
AcDbDictionaryWithDefault
  3
ObjectDBX Classes
 90
        0
 91
        3
280
     0
281
     0
  0
CLASS
  1
VISUALSTYLE
  2
AcDbVisualStyle
  3
ObjectDBX Classes
 90
     4095
 91
        3
280
     0
281
     0
  0
ENDSEC
  0
SECTION
  2
TABLES
  0
TABLE
  2
VPORT
  5
8
330
0
100
AcDbSymbolTable
 70
     1
  0
VPORT
  5
29
330
8
100
AcDbSymbolTableRecord
100
AcDbViewportTableRecord
  2
*Active
 70
     0
 10
0.0
 20
0.0
 11
1.0
 21
1.0
 12
0.0
 22
0.0
 13
0.0
 23
0.0
 14
0.5
 24
0.5
 15
0.5
 25
0.5
 16
0.0
 26
0.0
 36
1.0
 17
16.0
 27
-9.0
 37
0.0
 40
18.0
 41
1.777777777777778
 42
50.0
 43
0.0
 44
0.0
 50
0.0
 51
0.0
 71
     0
 72
   100
 73
     1
 74
     3
 75
     0
 76
     0
 77
     0
 78
     0
281
     0
 65
     1
110
0.0
120
0.0
130
0.0
111
1.0
121
0.0
131
0.0
112
0.0
122
1.0
132
0.0
 79
     0
146
0.0
  0
ENDTAB
  0
TABLE
  2
LTYPE
  5
5
330
0
100
AcDbSymbolTable
 70
     1
  0
LTYPE
  5
14
330
5
100
AcDbSymbolTableRecord
100
AcDbLinetypeTableRecord
  2
ByBlock
 70
     0
  3

 72
    65
 73
     0
 40
0.0
  0
LTYPE
  5
15
330
5
100
AcDbSymbolTableRecord
100
AcDbLinetypeTableRecord
  2
ByLayer
 70
     0
  3

 72
    65
 73
     0
 40
0.0
  0
LTYPE
  5
16
330
5
100
AcDbSymbolTableRecord
100
AcDbLinetypeTableRecord
  2
Continuous
 70
     0
  3
Solid line
 72
    65
 73
     0
 40
0.0
  0
ENDTAB
  0
TABLE
  2
LAYER
  5
2
330
0
100
AcDbSymbolTable
 70
     2
  0
LAYER
  5
10
330
2
100
AcDbSymbolTableRecord
100
AcDbLayerTableRecord
  2
0
 70
     0
 62
     7
  6
Continuous
370
    -3
390
F
  0
LAYER
  5
3B
330
2
100
AcDbSymbolTableRecord
100
AcDbLayerTableRecord
  2
Layer 1
 70
     0
 62
     7
  6
Continuous
370
    -3
390
F
  0
ENDTAB
  0
TABLE
  2
STYLE
  5
3
330
0
100
AcDbSymbolTable
 70
     1
  0
STYLE
  5
11
330
3
100
AcDbSymbolTableRecord
100
AcDbTextStyleTableRecord
  2
Standard
 70
     0
 40
0.0
 41
1.0
 50
0.0
 71
     0
 42
0.2
  3
txt
  4

  0
ENDTAB
  0
TABLE
  2
VIEW
  5
6
330
0
100
AcDbSymbolTable
 70
     0
  0
ENDTAB
  0
TABLE
  2
UCS
  5
7
330
0
100
AcDbSymbolTable
 70
     0
  0
ENDTAB
  0
TABLE
  2
APPID
  5
9
330
0
100
AcDbSymbolTable
 70
     1
  0
APPID
  5
12
330
9
100
AcDbSymbolTableRecord
100
AcDbRegAppTableRecord
  2
ACAD
 70
     0
  0
ENDTAB
  0
TABLE
  2
DIMSTYLE
  5
A
330
0
100
AcDbSymbolTable
 70
     1
100
AcDbDimStyleTable
  0
DIMSTYLE
105
27
330
A
100
AcDbSymbolTableRecord
100
AcDbDimStyleTableRecord
  2
Standard
 70
     0
340
11
  0
ENDTAB
  0
TABLE
  2
BLOCK_RECORD
  5
1
330
0
100
AcDbSymbolTable
 70
     3
  0
BLOCK_RECORD
  5
1F
330
1
100
AcDbSymbolTableRecord
100
AcDbBlockTableRecord
  2
*Model_Space
340
22
  0
BLOCK_RECORD
  5
1B
330
1
100
AcDbSymbolTableRecord
100
AcDbBlockTableRecord
  2
*Paper_Space
340
1E
  0
BLOCK_RECORD
  5
23
330
1
100
AcDbSymbolTableRecord
100
AcDbBlockTableRecord
  2
*Paper_Space0
340
26
  0
BLOCK_RECORD
  5
3C
330
1
100
AcDbSymbolTableRecord
100
AcDbBlockTableRecord
  2
block 2
340
0
102
{BLKREFS
331
3D
102
}
  0
BLOCK_RECORD
  5
48
330
1
100
AcDbSymbolTableRecord
100
AcDbBlockTableRecord
  2
block 3
340
0
102
{BLKREFS
331
49
102
}
  0
ENDTAB
  0
ENDSEC
  0
SECTION
  2
BLOCKS
  0
BLOCK
  5
20
330
1F
100
AcDbEntity
  8
0
100
AcDbBlockBegin
  2
*Model_Space
 70
     0
 71
     0
 10
0.0
 20
0.0
 30
0.0
  3
*Model_Space
  1

  0
ENDBLK
  5
21
330
1F
100
AcDbEntity
  8
0
100
AcDbBlockEnd
  0
BLOCK
  5
1C
330
1B
100
AcDbEntity
 67
     1
  8
0
100
AcDbBlockBegin
  2
*Paper_Space
 70
     0
 71
     0
 10
0.0
 20
0.0
 30
0.0
  3
*Paper_Space
  1

  0
ENDBLK
  5
1D
330
1B
100
AcDbEntity
 67
     1
  8
0
100
AcDbBlockEnd
  0
BLOCK
  5
24
330
23
100
AcDbEntity
  8
0
100
AcDbBlockBegin
  2
*Paper_Space0
 70
     0
 71
     0
 10
0.0
 20
0.0
 30
0.0
  3
*Paper_Space0
  1

  0
ENDBLK
  5
25
330
23
100
AcDbEntity
  8
0
100
AcDbBlockEnd
  0
BLOCK
  5
3E
330
3C
100
AcDbEntity
  8
0
100
AcDbBlockBegin
  2
block 2
 70
     0
 71
     0
 10
0.0
 20
0.0
 30
0.0
  3
block 2
  1

  0
POLYLINE
  5
40
330
3C
100
AcDbEntity
  8
Layer 1
 62
    18
420
    65793
370
     5
100
AcDb2dPolyline
 66
     1
 10
0.0
 20
0.0
 30
0.0
  0
VERTEX
  5
41
330
40
100
AcDbEntity
  8
Layer 1
 62
    18
420
    65793
370
     5
100
AcDbVertex
100
AcDb2dVertex
 10
3.499755859375
 20
-0.96142578125
 30
0.0
  0
VERTEX
  5
42
330
40
100
AcDbEntity
  8
Layer 1
 62
    18
420
    65793
370
     5
100
AcDbVertex
100
AcDb2dVertex
 10
1.090053982204861
 20
-0.96142578125
 30
0.0
  0
VERTEX
  5
43
330
40
100
AcDbEntity
  8
Layer 1
 62
    18
420
    65793
370
     5
100
AcDbVertex
100
AcDb2dVertex
 10
1.090053982204861
 20
-2.051398383246528
 30
0.0
  0
VERTEX
  5
44
330
40
100
AcDbEntity
  8
Layer 1
 62
    18
420
    65793
370
     5
100
AcDbVertex
100
AcDb2dVertex
 10
3.499755859375
 20
-2.051398383246528
 30
0.0
  0
VERTEX
  5
45
330
40
100
AcDbEntity
  8
Layer 1
 62
    18
420
    65793
370
     5
100
AcDbVertex
100
AcDb2dVertex
 10
3.499755859375
 20
-0.96142578125
 30
0.0
  0
SEQEND
  5
46
330
40
100
AcDbEntity
  8
Layer 1
370
     5
  0
HATCH
  5
47
330
3C
100
AcDbEntity
  8
Layer 1
 62
   240
420
 15540004
100
AcDbHatch
 10
0.0
 20
0.0
 30
0.0
210
0.0
220
0.0
230
1.0
  2
SOLID
 70
     1
 71
     0
 91
        1
 92
        1
 93
        4
 72
     1
 10
3.499755859375
 20
-0.96142578125
 11
1.090053982204861
 21
-0.96142578125
 72
     1
 10
1.090053982204861
 20
-0.96142578125
 11
1.090053982204861
 21
-2.051398383246528
 72
     1
 10
1.090053982204861
 20
-2.051398383246528
 11
3.499755859375
 21
-2.051398383246528
 72
     1
 10
3.499755859375
 20
-2.051398383246528
 11
3.499755859375
 21
-0.96142578125
 97
        0
 75
     2
 76
     1
 98
        0
  0
INSERT
  5
49
330
3C
100
AcDbEntity
  8
Layer 1
100
AcDbBlockReference
  2
block 3
 10
0.0
 20
0.0
 30
0.0
  0
ENDBLK
  5
3F
330
3C
100
AcDbEntity
  8
0
100
AcDbBlockEnd
  0
BLOCK
  5
4A
330
48
100
AcDbEntity
  8
0
100
AcDbBlockBegin
  2
block 3
 70
     0
 71
     0
 10
0.0
 20
0.0
 30
0.0
  3
block 3
  1

  0
SPLINE
  5
4C
330
48
100
AcDbEntity
  8
Layer 1
370
     0
100
AcDbSpline
210
0.0
220
0.0
230
1.0
 70
    11
 71
     3
 72
   125
 73
   121
 74
     0
 42
0.0000000001
 43
0.0000000001
 40
0.0
 40
0.0
 40
0.0
 40
0.0
 40
1.0
 40
1.0
 40
1.0
 40
2.0
 40
2.0
 40
2.0
 40
3.0
 40
3.0
 40
3.0
 40
4.0
 40
4.0
 40
4.0
 40
5.0
 40
5.0
 40
5.0
 40
6.0
 40
6.0
 40
6.0
 40
7.0
 40
7.0
 40
7.0
 40
8.0
 40
8.0
 40
8.0
 40
9.0
 40
9.0
 40
9.0
 40
10.0
 40
10.0
 40
10.0
 40
11.0
 40
11.0
 40
11.0
 40
12.0
 40
12.0
 40
12.0
 40
13.0
 40
13.0
 40
13.0
 40
14.0
 40
14.0
 40
14.0
 40
15.0
 40
15.0
 40
15.0
 40
16.0
 40
16.0
 40
16.0
 40
17.0
 40
17.0
 40
17.0
 40
18.0
 40
18.0
 40
18.0
 40
19.0
 40
19.0
 40
19.0
 40
20.0
 40
20.0
 40
20.0
 40
21.0
 40
21.0
 40
21.0
 40
22.0
 40
22.0
 40
22.0
 40
23.0
 40
23.0
 40
23.0
 40
24.0
 40
24.0
 40
24.0
 40
25.0
 40
25.0
 40
25.0
 40
26.0
 40
26.0
 40
26.0
 40
27.0
 40
27.0
 40
27.0
 40
28.0
 40
28.0
 40
28.0
 40
29.0
 40
29.0
 40
29.0
 40
30.0
 40
30.0
 40
30.0
 40
31.0
 40
31.0
 40
31.0
 40
32.0
 40
32.0
 40
32.0
 40
33.0
 40
33.0
 40
33.0
 40
34.0
 40
34.0
 40
34.0
 40
35.0
 40
35.0
 40
35.0
 40
36.0
 40
36.0
 40
36.0
 40
37.0
 40
37.0
 40
37.0
 40
38.0
 40
38.0
 40
38.0
 40
39.0
 40
39.0
 40
39.0
 40
40.0
 40
40.0
 40
40.0
 40
40.0
 10
2.243428548177083
 20
-1.868631998697917
 30
0.0
 10
2.243428548177083
 20
-1.868631998697917
 30
0.0
 10
2.518534342447917
 20
-1.868631998697917
 30
0.0
 10
2.518534342447917
 20
-1.868631998697917
 30
0.0
 10
2.573554144965278
 20
-1.868631998697917
 30
0.0
 10
2.616339789496528
 20
-1.858608669704861
 30
0.0
 10
2.64691162109375
 20
-1.838589138454861
 30
0.0
 10
2.677476671006944
 20
-1.818515353732639
 30
0.0
 10
2.700405544704861
 20
-1.791700575086805
 30
0.0
 10
2.7156982421875
 20
-1.758076985677083
 30
0.0
 10
2.726087782118055
 20
-1.735195583767361
 30
0.0
 10
2.733676486545139
 20
-1.70989990234375
 30
0.0
 10
2.738572862413194
 20
-1.682284884982639
 30
0.0
 10
2.738572862413194
 20
-1.682284884982639
 30
0.0
 10
2.738572862413194
 20
-1.868631998697917
 30
0.0
 10
2.738572862413194
 20
-1.868631998697917
 30
0.0
 10
2.738572862413194
 20
-1.868631998697917
 30
0.0
 10
2.928080240885417
 20
-1.868631998697917
 30
0.0
 10
2.928080240885417
 20
-1.868631998697917
 30
0.0
 10
2.928080240885417
 20
-1.868631998697917
 30
0.0
 10
2.928080240885417
 20
-1.589457194010417
 30
0.0
 10
2.928080240885417
 20
-1.589457194010417
 30
0.0
 10
2.928080240885417
 20
-1.589457194010417
 30
0.0
 10
2.930128309461805
 20
-1.589457194010417
 30
0.0
 10
2.930128309461805
 20
-1.589457194010417
 30
0.0
 10
2.930128309461805
 20
-1.589457194010417
 30
0.0
 10
3.070726182725694
 20
-1.868631998697917
 30
0.0
 10
3.070726182725694
 20
-1.868631998697917
 30
0.0
 10
3.070726182725694
 20
-1.868631998697917
 30
0.0
 10
3.272488064236111
 20
-1.868631998697917
 30
0.0
 10
3.272488064236111
 20
-1.868631998697917
 30
0.0
 10
3.272488064236111
 20
-1.868631998697917
 30
0.0
 10
3.089070638020833
 20
-1.550747341579861
 30
0.0
 10
3.089070638020833
 20
-1.550747341579861
 30
0.0
 10
3.089070638020833
 20
-1.550747341579861
 30
0.0
 10
3.294908311631944
 20
-1.141126844618056
 30
0.0
 10
3.294908311631944
 20
-1.141126844618056
 30
0.0
 10
3.294908311631944
 20
-1.141126844618056
 30
0.0
 10
3.078891330295139
 20
-1.141126844618056
 30
0.0
 10
3.078891330295139
 20
-1.141126844618056
 30
0.0
 10
3.078891330295139
 20
-1.141126844618056
 30
0.0
 10
2.967827690972222
 20
-1.394829644097222
 30
0.0
 10
2.967827690972222
 20
-1.394829644097222
 30
0.0
 10
2.967827690972222
 20
-1.394829644097222
 30
0.0
 10
2.928080240885417
 20
-1.333692762586806
 30
0.0
 10
2.928080240885417
 20
-1.333692762586806
 30
0.0
 10
2.928080240885417
 20
-1.333692762586806
 30
0.0
 10
2.928080240885417
 20
-1.141126844618056
 30
0.0
 10
2.928080240885417
 20
-1.141126844618056
 30
0.0
 10
2.928080240885417
 20
-1.141126844618056
 30
0.0
 10
2.738572862413194
 20
-1.141126844618056
 30
0.0
 10
2.738572862413194
 20
-1.141126844618056
 30
0.0
 10
2.738572862413194
 20
-1.141126844618056
 30
0.0
 10
2.738572862413194
 20
-1.327473958333333
 30
0.0
 10
2.738572862413194
 20
-1.327473958333333
 30
0.0
 10
2.733676486545139
 20
-1.299872504340278
 30
0.0
 10
2.726087782118055
 20
-1.274570041232639
 30
0.0
 10
2.7156982421875
 20
-1.251675075954861
 30
0.0
 10
2.700405544704861
 20
-1.218051486545139
 30
0.0
 10
2.677476671006944
 20
-1.191209581163194
 30
0.0
 10
2.64691162109375
 20
-1.171183268229167
 30
0.0
 10
2.616339789496528
 20
-1.151136610243056
 30
0.0
 10
2.573554144965278
 20
-1.141126844618056
 30
0.0
 10
2.518534342447917
 20
-1.141126844618056
 30
0.0
 10
2.518534342447917
 20
-1.141126844618056
 30
0.0
 10
1.797370062934028
 20
-1.141126844618056
 30
0.0
 10
1.797370062934028
 20
-1.141126844618056
 30
0.0
 10
1.797370062934028
 20
-1.141126844618056
 30
0.0
 10
1.797370062934028
 20
-1.312099880642361
 30
0.0
 10
1.797370062934028
 20
-1.312099880642361
 30
0.0
 10
1.788377549913194
 20
-1.272813585069444
 30
0.0
 10
1.775105794270833
 20
-1.240091959635417
 30
0.0
 10
1.757500542534722
 20
-1.213982476128472
 30
0.0
 10
1.737128363715278
 20
-1.183749728732639
 30
0.0
 10
1.710279676649305
 20
-1.16217041015625
 30
0.0
 10
1.677001953125
 20
-1.149271647135417
 30
0.0
 10
1.643710666232639
 20
-1.136372884114583
 30
0.0
 10
1.602959526909722
 20
-1.129916720920139
 30
0.0
 10
1.554728190104167
 20
-1.129916720920139
 30
0.0
 10
1.506490071614583
 20
-1.129916720920139
 30
0.0
 10
1.465732150607639
 20
-1.136372884114583
 30
0.0
 10
1.432461208767361
 20
-1.149271647135417
 30
0.0
 10
1.399176703559028
 20
-1.16217041015625
 30
0.0
 10
1.372348361545139
 20
-1.183749728732639
 30
0.0
 10
1.351969401041667
 20
-1.213982476128472
 30
0.0
 10
1.331590440538194
 20
-1.24420166015625
 30
0.0
 10
1.316975911458333
 20
-1.283270941840278
 30
0.0
 10
1.308152940538194
 20
-1.331156412760417
 30
0.0
 10
1.29931640625
 20
-1.379035101996528
 30
0.0
 10
1.294908311631944
 20
-1.43695068359375
 30
0.0
 10
1.294908311631944
 20
-1.5048828125
 30
0.0
 10
1.294908311631944
 20
-1.572801378038194
 30
0.0
 10
1.29931640625
 20
-1.630716959635417
 30
0.0
 10
1.308152940538194
 20
-1.678609212239583
 30
0.0
 10
1.316975911458333
 20
-1.72650146484375
 30
0.0
 10
1.331590440538194
 20
-1.765550401475694
 30
0.0
 10
1.351969401041667
 20
-1.795783148871528
 30
0.0
 10
1.372348361545139
 20
-1.826002332899305
 30
0.0
 10
1.399176703559028
 20
-1.84808349609375
 30
0.0
 10
1.432461208767361
 20
-1.862013075086805
 30
0.0
 10
1.465732150607639
 20
-1.87591552734375
 30
0.0
 10
1.506490071614583
 20
-1.882900661892361
 30
0.0
 10
1.554728190104167
 20
-1.882900661892361
 30
0.0
 10
1.602959526909722
 20
-1.882900661892361
 30
0.0
 10
1.643710666232639
 20
-1.87591552734375
 30
0.0
 10
1.677001953125
 20
-1.862013075086805
 30
0.0
 10
1.710279676649305
 20
-1.84808349609375
 30
0.0
 10
1.737128363715278
 20
-1.826002332899305
 30
0.0
 10
1.757500542534722
 20
-1.795783148871528
 30
0.0
 10
1.775105794270833
 20
-1.769660101996528
 30
0.0
 10
1.788377549913194
 20
-1.736958821614583
 30
0.0
 10
1.797370062934028
 20
-1.697665744357639
 30
0.0
 10
1.797370062934028
 20
-1.697665744357639
 30
0.0
 10
1.797370062934028
 20
-1.868631998697917
 30
0.0
 10
1.797370062934028
 20
-1.868631998697917
 30
0.0
 10
1.797370062934028
 20
-1.868631998697917
 30
0.0
 10
2.228373209635417
 20
-1.868631998697917
 30
0.0
 10
2.228373209635417
 20
-1.868631998697917
 30
0.0
 10
2.228373209635417
 20
-1.868631998697917
 30
0.0
 10
2.243428548177083
 20
-1.868631998697917
 30
0.0
 10
2.243428548177083
 20
-1.868631998697917
 30
0.0
  0
HATCH
  5
4D
330
48
100
AcDbEntity
  8
Layer 1
 62
     7
420
 15858171
100
AcDbHatch
 10
0.0
 20
0.0
 30
0.0
210
0.0
220
0.0
230
1.0
  2
SOLID
 70
     1
 71
     0
 91
        1
 92
        1
 93
        1
 72
     4
 94
        3
 73
     0
 74
     1
 95
      125
 96
      121
 40
0.0
 40
0.0
 40
0.0
 40
0.0
 40
1.0
 40
1.0
 40
1.0
 40
2.0
 40
2.0
 40
2.0
 40
3.0
 40
3.0
 40
3.0
 40
4.0
 40
4.0
 40
4.0
 40
5.0
 40
5.0
 40
5.0
 40
6.0
 40
6.0
 40
6.0
 40
7.0
 40
7.0
 40
7.0
 40
8.0
 40
8.0
 40
8.0
 40
9.0
 40
9.0
 40
9.0
 40
10.0
 40
10.0
 40
10.0
 40
11.0
 40
11.0
 40
11.0
 40
12.0
 40
12.0
 40
12.0
 40
13.0
 40
13.0
 40
13.0
 40
14.0
 40
14.0
 40
14.0
 40
15.0
 40
15.0
 40
15.0
 40
16.0
 40
16.0
 40
16.0
 40
17.0
 40
17.0
 40
17.0
 40
18.0
 40
18.0
 40
18.0
 40
19.0
 40
19.0
 40
19.0
 40
20.0
 40
20.0
 40
20.0
 40
21.0
 40
21.0
 40
21.0
 40
22.0
 40
22.0
 40
22.0
 40
23.0
 40
23.0
 40
23.0
 40
24.0
 40
24.0
 40
24.0
 40
25.0
 40
25.0
 40
25.0
 40
26.0
 40
26.0
 40
26.0
 40
27.0
 40
27.0
 40
27.0
 40
28.0
 40
28.0
 40
28.0
 40
29.0
 40
29.0
 40
29.0
 40
30.0
 40
30.0
 40
30.0
 40
31.0
 40
31.0
 40
31.0
 40
32.0
 40
32.0
 40
32.0
 40
33.0
 40
33.0
 40
33.0
 40
34.0
 40
34.0
 40
34.0
 40
35.0
 40
35.0
 40
35.0
 40
36.0
 40
36.0
 40
36.0
 40
37.0
 40
37.0
 40
37.0
 40
38.0
 40
38.0
 40
38.0
 40
39.0
 40
39.0
 40
39.0
 40
40.0
 40
40.0
 40
40.0
 40
40.0
 10
2.243428548177083
 20
-1.868631998697917
 10
2.243428548177083
 20
-1.868631998697917
 10
2.518534342447917
 20
-1.868631998697917
 10
2.518534342447917
 20
-1.868631998697917
 10
2.573554144965278
 20
-1.868631998697917
 10
2.616339789496528
 20
-1.858608669704861
 10
2.64691162109375
 20
-1.838589138454861
 10
2.677476671006944
 20
-1.818515353732639
 10
2.700405544704861
 20
-1.791700575086805
 10
2.7156982421875
 20
-1.758076985677083
 10
2.726087782118055
 20
-1.735195583767361
 10
2.733676486545139
 20
-1.70989990234375
 10
2.738572862413194
 20
-1.682284884982639
 10
2.738572862413194
 20
-1.682284884982639
 10
2.738572862413194
 20
-1.868631998697917
 10
2.738572862413194
 20
-1.868631998697917
 10
2.738572862413194
 20
-1.868631998697917
 10
2.928080240885417
 20
-1.868631998697917
 10
2.928080240885417
 20
-1.868631998697917
 10
2.928080240885417
 20
-1.868631998697917
 10
2.928080240885417
 20
-1.589457194010417
 10
2.928080240885417
 20
-1.589457194010417
 10
2.928080240885417
 20
-1.589457194010417
 10
2.930128309461805
 20
-1.589457194010417
 10
2.930128309461805
 20
-1.589457194010417
 10
2.930128309461805
 20
-1.589457194010417
 10
3.070726182725694
 20
-1.868631998697917
 10
3.070726182725694
 20
-1.868631998697917
 10
3.070726182725694
 20
-1.868631998697917
 10
3.272488064236111
 20
-1.868631998697917
 10
3.272488064236111
 20
-1.868631998697917
 10
3.272488064236111
 20
-1.868631998697917
 10
3.089070638020833
 20
-1.550747341579861
 10
3.089070638020833
 20
-1.550747341579861
 10
3.089070638020833
 20
-1.550747341579861
 10
3.294908311631944
 20
-1.141126844618056
 10
3.294908311631944
 20
-1.141126844618056
 10
3.294908311631944
 20
-1.141126844618056
 10
3.078891330295139
 20
-1.141126844618056
 10
3.078891330295139
 20
-1.141126844618056
 10
3.078891330295139
 20
-1.141126844618056
 10
2.967827690972222
 20
-1.394829644097222
 10
2.967827690972222
 20
-1.394829644097222
 10
2.967827690972222
 20
-1.394829644097222
 10
2.928080240885417
 20
-1.333692762586806
 10
2.928080240885417
 20
-1.333692762586806
 10
2.928080240885417
 20
-1.333692762586806
 10
2.928080240885417
 20
-1.141126844618056
 10
2.928080240885417
 20
-1.141126844618056
 10
2.928080240885417
 20
-1.141126844618056
 10
2.738572862413194
 20
-1.141126844618056
 10
2.738572862413194
 20
-1.141126844618056
 10
2.738572862413194
 20
-1.141126844618056
 10
2.738572862413194
 20
-1.327473958333333
 10
2.738572862413194
 20
-1.327473958333333
 10
2.733676486545139
 20
-1.299872504340278
 10
2.726087782118055
 20
-1.274570041232639
 10
2.7156982421875
 20
-1.251675075954861
 10
2.700405544704861
 20
-1.218051486545139
 10
2.677476671006944
 20
-1.191209581163194
 10
2.64691162109375
 20
-1.171183268229167
 10
2.616339789496528
 20
-1.151136610243056
 10
2.573554144965278
 20
-1.141126844618056
 10
2.518534342447917
 20
-1.141126844618056
 10
2.518534342447917
 20
-1.141126844618056
 10
1.797370062934028
 20
-1.141126844618056
 10
1.797370062934028
 20
-1.141126844618056
 10
1.797370062934028
 20
-1.141126844618056
 10
1.797370062934028
 20
-1.312099880642361
 10
1.797370062934028
 20
-1.312099880642361
 10
1.788377549913194
 20
-1.272813585069444
 10
1.775105794270833
 20
-1.240091959635417
 10
1.757500542534722
 20
-1.213982476128472
 10
1.737128363715278
 20
-1.183749728732639
 10
1.710279676649305
 20
-1.16217041015625
 10
1.677001953125
 20
-1.149271647135417
 10
1.643710666232639
 20
-1.136372884114583
 10
1.602959526909722
 20
-1.129916720920139
 10
1.554728190104167
 20
-1.129916720920139
 10
1.506490071614583
 20
-1.129916720920139
 10
1.465732150607639
 20
-1.136372884114583
 10
1.432461208767361
 20
-1.149271647135417
 10
1.399176703559028
 20
-1.16217041015625
 10
1.372348361545139
 20
-1.183749728732639
 10
1.351969401041667
 20
-1.213982476128472
 10
1.331590440538194
 20
-1.24420166015625
 10
1.316975911458333
 20
-1.283270941840278
 10
1.308152940538194
 20
-1.331156412760417
 10
1.29931640625
 20
-1.379035101996528
 10
1.294908311631944
 20
-1.43695068359375
 10
1.294908311631944
 20
-1.5048828125
 10
1.294908311631944
 20
-1.572801378038194
 10
1.29931640625
 20
-1.630716959635417
 10
1.308152940538194
 20
-1.678609212239583
 10
1.316975911458333
 20
-1.72650146484375
 10
1.331590440538194
 20
-1.765550401475694
 10
1.351969401041667
 20
-1.795783148871528
 10
1.372348361545139
 20
-1.826002332899305
 10
1.399176703559028
 20
-1.84808349609375
 10
1.432461208767361
 20
-1.862013075086805
 10
1.465732150607639
 20
-1.87591552734375
 10
1.506490071614583
 20
-1.882900661892361
 10
1.554728190104167
 20
-1.882900661892361
 10
1.602959526909722
 20
-1.882900661892361
 10
1.643710666232639
 20
-1.87591552734375
 10
1.677001953125
 20
-1.862013075086805
 10
1.710279676649305
 20
-1.84808349609375
 10
1.737128363715278
 20
-1.826002332899305
 10
1.757500542534722
 20
-1.795783148871528
 10
1.775105794270833
 20
-1.769660101996528
 10
1.788377549913194
 20
-1.736958821614583
 10
1.797370062934028
 20
-1.697665744357639
 10
1.797370062934028
 20
-1.697665744357639
 10
1.797370062934028
 20
-1.868631998697917
 10
1.797370062934028
 20
-1.868631998697917
 10
1.797370062934028
 20
-1.868631998697917
 10
2.228373209635417
 20
-1.868631998697917
 10
2.228373209635417
 20
-1.868631998697917
 10
2.228373209635417
 20
-1.868631998697917
 10
2.243428548177083
 20
-1.868631998697917
 10
2.243428548177083
 20
-1.868631998697917
 97
        0
 75
     2
 76
     1
 98
        0
  0
POLYLINE
  5
4E
330
48
100
AcDbEntity
  8
Layer 1
370
     0
100
AcDb2dPolyline
 66
     1
 10
0.0
 20
0.0
 30
0.0
  0
VERTEX
  5
4F
330
4E
100
AcDbEntity
  8
Layer 1
370
     0
100
AcDbVertex
100
AcDb2dVertex
 10
2.228373209635417
 20
-1.868631998697917
 30
0.0
  0
VERTEX
  5
50
330
4E
100
AcDbEntity
  8
Layer 1
370
     0
100
AcDbVertex
100
AcDb2dVertex
 10
2.228373209635417
 20
-1.713765462239583
 30
0.0
  0
VERTEX
  5
51
330
4E
100
AcDbEntity
  8
Layer 1
370
     0
100
AcDbVertex
100
AcDb2dVertex
 10
1.986884223090278
 20
-1.713765462239583
 30
0.0
  0
VERTEX
  5
52
330
4E
100
AcDbEntity
  8
Layer 1
370
     0
100
AcDbVertex
100
AcDb2dVertex
 10
1.986884223090278
 20
-1.589457194010417
 30
0.0
  0
VERTEX
  5
53
330
4E
100
AcDbEntity
  8
Layer 1
370
     0
100
AcDbVertex
100
AcDb2dVertex
 10
2.213094075520833
 20
-1.589457194010417
 30
0.0
  0
VERTEX
  5
54
330
4E
100
AcDbEntity
  8
Layer 1
370
     0
100
AcDbVertex
100
AcDb2dVertex
 10
2.213094075520833
 20
-1.440694173177083
 30
0.0
  0
VERTEX
  5
55
330
4E
100
AcDbEntity
  8
Layer 1
370
     0
100
AcDbVertex
100
AcDb2dVertex
 10
1.986884223090278
 20
-1.440694173177083
 30
0.0
  0
VERTEX
  5
56
330
4E
100
AcDbEntity
  8
Layer 1
370
     0
100
AcDbVertex
100
AcDb2dVertex
 10
1.986884223090278
 20
-1.296000162760417
 30
0.0
  0
VERTEX
  5
57
330
4E
100
AcDbEntity
  8
Layer 1
370
     0
100
AcDbVertex
100
AcDb2dVertex
 10
2.243428548177083
 20
-1.296000162760417
 30
0.0
  0
VERTEX
  5
58
330
4E
100
AcDbEntity
  8
Layer 1
370
     0
100
AcDbVertex
100
AcDb2dVertex
 10
2.243428548177083
 20
-1.868631998697917
 30
0.0
  0
VERTEX
  5
59
330
4E
100
AcDbEntity
  8
Layer 1
370
     0
100
AcDbVertex
100
AcDb2dVertex
 10
2.228373209635417
 20
-1.868631998697917
 30
0.0
  0
SEQEND
  5
5A
330
4E
100
AcDbEntity
  8
Layer 1
370
     0
  0
SPLINE
  5
5B
330
48
100
AcDbEntity
  8
Layer 1
370
     0
100
AcDbSpline
210
0.0
220
0.0
230
1.0
 70
    11
 71
     3
 72
    53
 73
    49
 74
     0
 42
0.0000000001
 43
0.0000000001
 40
0.0
 40
0.0
 40
0.0
 40
0.0
 40
1.0
 40
1.0
 40
1.0
 40
2.0
 40
2.0
 40
2.0
 40
3.0
 40
3.0
 40
3.0
 40
4.0
 40
4.0
 40
4.0
 40
5.0
 40
5.0
 40
5.0
 40
6.0
 40
6.0
 40
6.0
 40
7.0
 40
7.0
 40
7.0
 40
8.0
 40
8.0
 40
8.0
 40
9.0
 40
9.0
 40
9.0
 40
10.0
 40
10.0
 40
10.0
 40
11.0
 40
11.0
 40
11.0
 40
12.0
 40
12.0
 40
12.0
 40
13.0
 40
13.0
 40
13.0
 40
14.0
 40
14.0
 40
14.0
 40
15.0
 40
15.0
 40
15.0
 40
16.0
 40
16.0
 40
16.0
 40
16.0
 10
1.618923611111111
 20
-1.5048828125
 30
0.0
 10
1.618923611111111
 20
-1.553785536024306
 30
0.0
 10
1.618238661024305
 20
-1.594367133246528
 30
0.0
 10
1.616889105902778
 20
-1.62664794921875
 30
0.0
 10
1.615512424045139
 20
-1.658901638454861
 30
0.0
 10
1.612636990017361
 20
-1.684549967447917
 30
0.0
 10
1.608228895399305
 20
-1.703579372829861
 30
0.0
 10
1.603793674045139
 20
-1.722581651475694
 30
0.0
 10
1.59735107421875
 20
-1.735833062065972
 30
0.0
 10
1.5888671875
 20
-1.743306477864583
 30
0.0
 10
1.580362955729167
 20
-1.750779893663194
 30
0.0
 10
1.568996853298611
 20
-1.754523383246528
 30
0.0
 10
1.554728190104167
 20
-1.754523383246528
 30
0.0
 10
1.540459526909722
 20
-1.754523383246528
 30
0.0
 10
1.529086642795139
 20
-1.750779893663194
 30
0.0
 10
1.520602756076389
 20
-1.743306477864583
 30
0.0
 10
1.512098524305556
 20
-1.735833062065972
 30
0.0
 10
1.505649142795139
 20
-1.722581651475694
 30
0.0
 10
1.501234266493056
 20
-1.703579372829861
 30
0.0
 10
1.496812608506944
 20
-1.684549967447917
 30
0.0
 10
1.493930392795139
 20
-1.658901638454861
 30
0.0
 10
1.492574055989583
 20
-1.62664794921875
 30
0.0
 10
1.4912109375
 20
-1.594367133246528
 30
0.0
 10
1.490532769097222
 20
-1.553785536024306
 30
0.0
 10
1.490532769097222
 20
-1.5048828125
 30
0.0
 10
1.490532769097222
 20
-1.455966525607639
 30
0.0
 10
1.4912109375
 20
-1.415378146701389
 30
0.0
 10
1.492574055989583
 20
-1.383110894097222
 30
0.0
 10
1.493930392795139
 20
-1.350850423177083
 30
0.0
 10
1.496812608506944
 20
-1.325202094184028
 30
0.0
 10
1.501234266493056
 20
-1.306193033854167
 30
0.0
 10
1.505649142795139
 20
-1.28717041015625
 30
0.0
 10
1.512098524305556
 20
-1.273932562934028
 30
0.0
 10
1.520602756076389
 20
-1.266459147135417
 30
0.0
 10
1.529086642795139
 20
-1.25897216796875
 30
0.0
 10
1.540459526909722
 20
-1.2552490234375
 30
0.0
 10
1.554728190104167
 20
-1.2552490234375
 30
0.0
 10
1.568996853298611
 20
-1.2552490234375
 30
0.0
 10
1.580362955729167
 20
-1.25897216796875
 30
0.0
 10
1.5888671875
 20
-1.266459147135417
 30
0.0
 10
1.59735107421875
 20
-1.273932562934028
 30
0.0
 10
1.603793674045139
 20
-1.28717041015625
 30
0.0
 10
1.608228895399305
 20
-1.306193033854167
 30
0.0
 10
1.612636990017361
 20
-1.325202094184028
 30
0.0
 10
1.615512424045139
 20
-1.350850423177083
 30
0.0
 10
1.616889105902778
 20
-1.383110894097222
 30
0.0
 10
1.618238661024305
 20
-1.415378146701389
 30
0.0
 10
1.618923611111111
 20
-1.455966525607639
 30
0.0
 10
1.618923611111111
 20
-1.5048828125
 30
0.0
  0
SPLINE
  5
5C
330
48
100
AcDbEntity
  8
Layer 1
370
     0
100
AcDbSpline
210
0.0
220
0.0
230
1.0
 70
    11
 71
     3
 72
    38
 73
    34
 74
     0
 42
0.0000000001
 43
0.0000000001
 40
0.0
 40
0.0
 40
0.0
 40
0.0
 40
1.0
 40
1.0
 40
1.0
 40
2.0
 40
2.0
 40
2.0
 40
3.0
 40
3.0
 40
3.0
 40
4.0
 40
4.0
 40
4.0
 40
5.0
 40
5.0
 40
5.0
 40
6.0
 40
6.0
 40
6.0
 40
7.0
 40
7.0
 40
7.0
 40
8.0
 40
8.0
 40
8.0
 40
9.0
 40
9.0
 40
9.0
 40
10.0
 40
10.0
 40
10.0
 40
11.0
 40
11.0
 40
11.0
 40
11.0
 10
2.553168402777778
 20
-1.5048828125
 30
0.0
 10
2.553168402777778
 20
-1.553785536024306
 30
0.0
 10
2.55230712890625
 20
-1.593173556857639
 30
0.0
 10
2.550625271267361
 20
-1.623067220052083
 30
0.0
 10
2.548916286892361
 20
-1.652960883246528
 30
0.0
 10
2.545179578993055
 20
-1.676072862413194
 30
0.0
 10
2.539415147569444
 20
-1.692362467447917
 30
0.0
 10
2.533637152777778
 20
-1.708665635850694
 30
0.0
 10
2.525316026475694
 20
-1.719367133246528
 30
0.0
 10
2.514458550347222
 20
-1.724466959635417
 30
0.0
 10
2.503580729166667
 20
-1.72955322265625
 30
0.0
 10
2.488986545138889
 20
-1.732089572482639
 30
0.0
 10
2.47064208984375
 20
-1.732089572482639
 30
0.0
 10
2.47064208984375
 20
-1.732089572482639
 30
0.0
 10
2.432942708333333
 20
-1.732089572482639
 30
0.0
 10
2.432942708333333
 20
-1.732089572482639
 30
0.0
 10
2.432942708333333
 20
-1.732089572482639
 30
0.0
 10
2.432942708333333
 20
-1.277669270833333
 30
0.0
 10
2.432942708333333
 20
-1.277669270833333
 30
0.0
 10
2.432942708333333
 20
-1.277669270833333
 30
0.0
 10
2.47064208984375
 20
-1.277669270833333
 30
0.0
 10
2.47064208984375
 20
-1.277669270833333
 30
0.0
 10
2.488986545138889
 20
-1.277669270833333
 30
0.0
 10
2.503580729166667
 20
-1.280205620659722
 30
0.0
 10
2.514458550347222
 20
-1.285305447048611
 30
0.0
 10
2.525316026475694
 20
-1.290391710069444
 30
0.0
 10
2.533637152777778
 20
-1.301099989149306
 30
0.0
 10
2.539415147569444
 20
-1.317403157552083
 30
0.0
 10
2.545179578993055
 20
-1.333692762586806
 30
0.0
 10
2.548916286892361
 20
-1.356777615017361
 30
0.0
 10
2.550625271267361
 20
-1.386698404947917
 30
0.0
 10
2.55230712890625
 20
-1.41656494140625
 30
0.0
 10
2.553168402777778
 20
-1.455966525607639
 30
0.0
 10
2.553168402777778
 20
-1.5048828125
 30
0.0
  0
HATCH
  5
5D
330
48
100
AcDbEntity
  8
Layer 1
 62
   240
420
 15540004
100
AcDbHatch
 10
0.0
 20
0.0
 30
0.0
210
0.0
220
0.0
230
1.0
  2
SOLID
 70
     1
 71
     0
 91
        3
 92
        1
 93
       10
 72
     1
 10
2.228373209635417
 20
-1.868631998697917
 11
2.228373209635417
 21
-1.713765462239583
 72
     1
 10
2.228373209635417
 20
-1.713765462239583
 11
1.986884223090278
 21
-1.713765462239583
 72
     1
 10
1.986884223090278
 20
-1.713765462239583
 11
1.986884223090278
 21
-1.589457194010417
 72
     1
 10
1.986884223090278
 20
-1.589457194010417
 11
2.213094075520833
 21
-1.589457194010417
 72
     1
 10
2.213094075520833
 20
-1.589457194010417
 11
2.213094075520833
 21
-1.440694173177083
 72
     1
 10
2.213094075520833
 20
-1.440694173177083
 11
1.986884223090278
 21
-1.440694173177083
 72
     1
 10
1.986884223090278
 20
-1.440694173177083
 11
1.986884223090278
 21
-1.296000162760417
 72
     1
 10
1.986884223090278
 20
-1.296000162760417
 11
2.243428548177083
 21
-1.296000162760417
 72
     1
 10
2.243428548177083
 20
-1.296000162760417
 11
2.243428548177083
 21
-1.868631998697917
 72
     1
 10
2.243428548177083
 20
-1.868631998697917
 11
2.228373209635417
 21
-1.868631998697917
 97
        0
 92
        1
 93
        1
 72
     4
 94
        3
 73
     0
 74
     1
 95
       53
 96
       49
 40
0.0
 40
0.0
 40
0.0
 40
0.0
 40
1.0
 40
1.0
 40
1.0
 40
2.0
 40
2.0
 40
2.0
 40
3.0
 40
3.0
 40
3.0
 40
4.0
 40
4.0
 40
4.0
 40
5.0
 40
5.0
 40
5.0
 40
6.0
 40
6.0
 40
6.0
 40
7.0
 40
7.0
 40
7.0
 40
8.0
 40
8.0
 40
8.0
 40
9.0
 40
9.0
 40
9.0
 40
10.0
 40
10.0
 40
10.0
 40
11.0
 40
11.0
 40
11.0
 40
12.0
 40
12.0
 40
12.0
 40
13.0
 40
13.0
 40
13.0
 40
14.0
 40
14.0
 40
14.0
 40
15.0
 40
15.0
 40
15.0
 40
16.0
 40
16.0
 40
16.0
 40
16.0
 10
1.618923611111111
 20
-1.5048828125
 10
1.618923611111111
 20
-1.553785536024306
 10
1.618238661024305
 20
-1.594367133246528
 10
1.616889105902778
 20
-1.62664794921875
 10
1.615512424045139
 20
-1.658901638454861
 10
1.612636990017361
 20
-1.684549967447917
 10
1.608228895399305
 20
-1.703579372829861
 10
1.603793674045139
 20
-1.722581651475694
 10
1.59735107421875
 20
-1.735833062065972
 10
1.5888671875
 20
-1.743306477864583
 10
1.580362955729167
 20
-1.750779893663194
 10
1.568996853298611
 20
-1.754523383246528
 10
1.554728190104167
 20
-1.754523383246528
 10
1.540459526909722
 20
-1.754523383246528
 10
1.529086642795139
 20
-1.750779893663194
 10
1.520602756076389
 20
-1.743306477864583
 10
1.512098524305556
 20
-1.735833062065972
 10
1.505649142795139
 20
-1.722581651475694
 10
1.501234266493056
 20
-1.703579372829861
 10
1.496812608506944
 20
-1.684549967447917
 10
1.493930392795139
 20
-1.658901638454861
 10
1.492574055989583
 20
-1.62664794921875
 10
1.4912109375
 20
-1.594367133246528
 10
1.490532769097222
 20
-1.553785536024306
 10
1.490532769097222
 20
-1.5048828125
 10
1.490532769097222
 20
-1.455966525607639
 10
1.4912109375
 20
-1.415378146701389
 10
1.492574055989583
 20
-1.383110894097222
 10
1.493930392795139
 20
-1.350850423177083
 10
1.496812608506944
 20
-1.325202094184028
 10
1.501234266493056
 20
-1.306193033854167
 10
1.505649142795139
 20
-1.28717041015625
 10
1.512098524305556
 20
-1.273932562934028
 10
1.520602756076389
 20
-1.266459147135417
 10
1.529086642795139
 20
-1.25897216796875
 10
1.540459526909722
 20
-1.2552490234375
 10
1.554728190104167
 20
-1.2552490234375
 10
1.568996853298611
 20
-1.2552490234375
 10
1.580362955729167
 20
-1.25897216796875
 10
1.5888671875
 20
-1.266459147135417
 10
1.59735107421875
 20
-1.273932562934028
 10
1.603793674045139
 20
-1.28717041015625
 10
1.608228895399305
 20
-1.306193033854167
 10
1.612636990017361
 20
-1.325202094184028
 10
1.615512424045139
 20
-1.350850423177083
 10
1.616889105902778
 20
-1.383110894097222
 10
1.618238661024305
 20
-1.415378146701389
 10
1.618923611111111
 20
-1.455966525607639
 10
1.618923611111111
 20
-1.5048828125
 97
        0
 92
        1
 93
        1
 72
     4
 94
        3
 73
     0
 74
     1
 95
       38
 96
       34
 40
0.0
 40
0.0
 40
0.0
 40
0.0
 40
1.0
 40
1.0
 40
1.0
 40
2.0
 40
2.0
 40
2.0
 40
3.0
 40
3.0
 40
3.0
 40
4.0
 40
4.0
 40
4.0
 40
5.0
 40
5.0
 40
5.0
 40
6.0
 40
6.0
 40
6.0
 40
7.0
 40
7.0
 40
7.0
 40
8.0
 40
8.0
 40
8.0
 40
9.0
 40
9.0
 40
9.0
 40
10.0
 40
10.0
 40
10.0
 40
11.0
 40
11.0
 40
11.0
 40
11.0
 10
2.553168402777778
 20
-1.5048828125
 10
2.553168402777778
 20
-1.553785536024306
 10
2.55230712890625
 20
-1.593173556857639
 10
2.550625271267361
 20
-1.623067220052083
 10
2.548916286892361
 20
-1.652960883246528
 10
2.545179578993055
 20
-1.676072862413194
 10
2.539415147569444
 20
-1.692362467447917
 10
2.533637152777778
 20
-1.708665635850694
 10
2.525316026475694
 20
-1.719367133246528
 10
2.514458550347222
 20
-1.724466959635417
 10
2.503580729166667
 20
-1.72955322265625
 10
2.488986545138889
 20
-1.732089572482639
 10
2.47064208984375
 20
-1.732089572482639
 10
2.47064208984375
 20
-1.732089572482639
 10
2.432942708333333
 20
-1.732089572482639
 10
2.432942708333333
 20
-1.732089572482639
 10
2.432942708333333
 20
-1.732089572482639
 10
2.432942708333333
 20
-1.277669270833333
 10
2.432942708333333
 20
-1.277669270833333
 10
2.432942708333333
 20
-1.277669270833333
 10
2.47064208984375
 20
-1.277669270833333
 10
2.47064208984375
 20
-1.277669270833333
 10
2.488986545138889
 20
-1.277669270833333
 10
2.503580729166667
 20
-1.280205620659722
 10
2.514458550347222
 20
-1.285305447048611
 10
2.525316026475694
 20
-1.290391710069444
 10
2.533637152777778
 20
-1.301099989149306
 10
2.539415147569444
 20
-1.317403157552083
 10
2.545179578993055
 20
-1.333692762586806
 10
2.548916286892361
 20
-1.356777615017361
 10
2.550625271267361
 20
-1.386698404947917
 10
2.55230712890625
 20
-1.41656494140625
 10
2.553168402777778
 20
-1.455966525607639
 10
2.553168402777778
 20
-1.5048828125
 97
        0
 75
     2
 76
     1
 98
        0
  0
ENDBLK
  5
4B
330
48
100
AcDbEntity
  8
0
100
AcDbBlockEnd
  0
ENDSEC
  0
SECTION
  2
ENTITIES
  0
INSERT
  5
3D
330
1F
100
AcDbEntity
  8
Layer 1
100
AcDbBlockReference
  2
block 2
 10
0.0
 20
0.0
 30
0.0
  0
POLYLINE
  5
5E
330
1F
100
AcDbEntity
  8
Layer 1
 62
   240
420
 15540004
370
     5
100
AcDb2dPolyline
 66
     1
 10
0.0
 20
0.0
 30
0.0
  0
VERTEX
  5
5F
330
5E
100
AcDbEntity
  8
Layer 1
 62
   240
420
 15540004
370
     5
100
AcDbVertex
100
AcDb2dVertex
 10
3.499755859375
 20
-0.96142578125
 30
0.0
  0
VERTEX
  5
60
330
5E
100
AcDbEntity
  8
Layer 1
 62
   240
420
 15540004
370
     5
100
AcDbVertex
100
AcDb2dVertex
 10
1.090053982204861
 20
-0.96142578125
 30
0.0
  0
VERTEX
  5
61
330
5E
100
AcDbEntity
  8
Layer 1
 62
   240
420
 15540004
370
     5
100
AcDbVertex
100
AcDb2dVertex
 10
1.090053982204861
 20
-2.051398383246528
 30
0.0
  0
VERTEX
  5
62
330
5E
100
AcDbEntity
  8
Layer 1
 62
   240
420
 15540004
370
     5
100
AcDbVertex
100
AcDb2dVertex
 10
3.499755859375
 20
-2.051398383246528
 30
0.0
  0
VERTEX
  5
63
330
5E
100
AcDbEntity
  8
Layer 1
 62
   240
420
 15540004
370
     5
100
AcDbVertex
100
AcDb2dVertex
 10
3.499755859375
 20
-0.96142578125
 30
0.0
  0
SEQEND
  5
64
330
5E
100
AcDbEntity
  8
Layer 1
370
     5
  0
ENDSEC
  0
SECTION
  2
OBJECTS
  0
DICTIONARY
  5
C
330
0
100
AcDbDictionary
281
     1
  3
ACAD_GROUP
350
D
  3
ACAD_LAYOUT
350
1A
  3
ACAD_MLINESTYLE
350
17
  3
ACAD_PLOTSETTINGS
350
19
  3
ACAD_PLOTSTYLENAME
350
E
  3
ACAD_TABLESTYLE
350
65
  3
ACAD_VISUALSTYLE
350
2A
  0
DICTIONARY
  5
D
102
{ACAD_REACTORS
330
C
102
}
330
C
100
AcDbDictionary
281
     1
  0
DICTIONARY
  5
1A
102
{ACAD_REACTORS
330
C
102
}
330
C
100
AcDbDictionary
281
     1
  3
Layout1
350
1E
  3
Layout2
350
26
  3
Model
350
22
  0
DICTIONARY
  5
17
102
{ACAD_REACTORS
330
C
102
}
330
C
100
AcDbDictionary
281
     1
  3
Standard
350
18
  0
DICTIONARY
  5
19
102
{ACAD_REACTORS
330
C
102
}
330
C
100
AcDbDictionary
281
     1
  0
ACDBDICTIONARYWDFLT
  5
E
102
{ACAD_REACTORS
330
C
102
}
330
C
100
AcDbDictionary
281
     1
  3
Normal
350
F
100
AcDbDictionaryWithDefault
340
F
  0
DICTIONARY
  5
65
102
{ACAD_REACTORS
330
C
102
}
330
C
100
AcDbDictionary
281
     1
  0
DICTIONARY
  5
2A
102
{ACAD_REACTORS
330
C
102
}
330
C
100
AcDbDictionary
281
     1
  3
2dWireframe
350
2F
  3
3D Hidden
350
31
  3
3dWireframe
350
30
  3
Basic
350
32
  3
Brighten
350
36
  3
ColorChange
350
3A
  3
Conceptual
350
34
  3
Dim
350
35
  3
Facepattern
350
39
  3
Flat
350
2B
  3
FlatWithEdges
350
2C
  3
Gouraud
350
2D
  3
GouraudWithEdges
350
2E
  3
Linepattern
350
38
  3
Realistic
350
33
  3
Thicken
350
37
  0
LAYOUT
  5
1E
102
{ACAD_REACTORS
330
1A
102
}
330
1A
100
AcDbPlotSettings
  1

  2
none_device
  4

  6

 40
0.0
 41
0.0
 42
0.0
 43
0.0
 44
0.0
 45
0.0
 46
0.0
 47
0.0
 48
0.0
 49
0.0
140
0.0
141
0.0
142
1.0
143
1.0
 70
   688
 72
     0
 73
     0
 74
     5
  7

 75
    16
 76
     0
 77
     2
 78
   300
147
1.0
148
0.0
149
0.0
100
AcDbLayout
  1
Layout1
 70
     1
 71
     1
 10
0.0
 20
0.0
 11
12.0
 21
9.0
 12
0.0
 22
0.0
 32
0.0
 14
1.000000000000000E+20
 24
1.000000000000000E+20
 34
1.000000000000000E+20
 15
-1.000000000000000E+20
 25
-1.000000000000000E+20
 35
-1.000000000000000E+20
146
0.0
 13
0.0
 23
0.0
 33
0.0
 16
1.0
 26
0.0
 36
0.0
 17
0.0
 27
1.0
 37
0.0
 76
     0
330
1B
  0
LAYOUT
  5
26
102
{ACAD_REACTORS
330
1A
102
}
330
1A
100
AcDbPlotSettings
  1

  2
none_device
  4

  6

 40
0.0
 41
0.0
 42
0.0
 43
0.0
 44
0.0
 45
0.0
 46
0.0
 47
0.0
 48
0.0
 49
0.0
140
0.0
141
0.0
142
1.0
143
1.0
 70
   688
 72
     0
 73
     0
 74
     5
  7

 75
    16
 76
     0
 77
     2
 78
   300
147
1.0
148
0.0
149
0.0
100
AcDbLayout
  1
Layout2
 70
     1
 71
     2
 10
0.0
 20
0.0
 11
0.0
 21
0.0
 12
0.0
 22
0.0
 32
0.0
 14
0.0
 24
0.0
 34
0.0
 15
0.0
 25
0.0
 35
0.0
146
0.0
 13
0.0
 23
0.0
 33
0.0
 16
1.0
 26
0.0
 36
0.0
 17
0.0
 27
1.0
 37
0.0
 76
     0
330
23
  0
LAYOUT
  5
22
102
{ACAD_REACTORS
330
1A
102
}
330
1A
100
AcDbPlotSettings
  1

  2
none_device
  4

  6

 40
0.0
 41
0.0
 42
0.0
 43
0.0
 44
0.0
 45
0.0
 46
0.0
 47
0.0
 48
0.0
 49
0.0
140
0.0
141
0.0
142
1.0
143
1.0
 70
  1712
 72
     0
 73
     0
 74
     0
  7

 75
     0
 76
     0
 77
     2
 78
   300
147
1.0
148
0.0
149
0.0
100
AcDbLayout
  1
Model
 70
     1
 71
     0
 10
0.0
 20
0.0
 11
12.0
 21
9.0
 12
0.0
 22
0.0
 32
0.0
 14
1.000000000000000E+20
 24
1.000000000000000E+20
 34
1.000000000000000E+20
 15
-1.000000000000000E+20
 25
-1.000000000000000E+20
 35
-1.000000000000000E+20
146
0.0
 13
0.0
 23
0.0
 33
0.0
 16
1.0
 26
0.0
 36
0.0
 17
0.0
 27
1.0
 37
0.0
 76
     0
330
1F
331
29
  0
MLINESTYLE
  5
18
102
{ACAD_REACTORS
330
17
102
}
330
17
100
AcDbMlineStyle
  2
Standard
 70
     0
  3

 62
   256
 51
90.0
 52
90.0
 71
     2
 49
0.5
 62
   256
  6
BYLAYER
 49
-0.5
 62
   256
  6
BYLAYER
  0
ACDBPLACEHOLDER
  5
F
102
{ACAD_REACTORS
330
E
102
}
330
E
  0
VISUALSTYLE
  5
2F
102
{ACAD_REACTORS
330
2A
102
}
330
2A
100
AcDbVisualStyle
  2
2dWireframe
 70
     4
 71
     0
 72
     2
 73
     0
 90
        0
 40
-0.6
 41
-30.0
 62
     5
 63
     7
421
 16777215
 74
     1
 91
        4
 64
     7
 65
   257
 75
     1
175
     1
 42
1.0
 92
        0
 66
   257
 43
1.0
 76
     1
 77
     6
 78
     2
 67
     7
 79
     5
170
     0
171
     0
290
     0
174
     0
 93
        1
 44
0.0
173
     0
291
     0
 45
0.0
1001
ACAD
1000
AcDbSavedByObjectVersion
1070
     0
  0
VISUALSTYLE
  5
31
102
{ACAD_REACTORS
330
2A
102
}
330
2A
100
AcDbVisualStyle
  2
3D Hidden
 70
     6
 71
     1
 72
     2
 73
     2
 90
        0
 40
-0.6
 41
-30.0
 62
     5
 63
     7
421
 16777215
 74
     2
 91
        2
 64
     7
 65
   257
 75
     2
175
     1
 42
40.0
 92
        0
 66
   257
 43
1.0
 76
     1
 77
     6
 78
     2
 67
     7
 79
     3
170
     0
171
     0
290
     0
174
     0
 93
        1
 44
0.0
173
     0
291
     0
 45
0.0
1001
ACAD
1000
AcDbSavedByObjectVersion
1070
     0
  0
VISUALSTYLE
  5
30
102
{ACAD_REACTORS
330
2A
102
}
330
2A
100
AcDbVisualStyle
  2
3dWireframe
 70
     5
 71
     0
 72
     2
 73
     0
 90
        0
 40
-0.6
 41
-30.0
 62
     5
 63
     7
421
 16777215
 74
     1
 91
        4
 64
     7
 65
   257
 75
     1
175
     1
 42
1.0
 92
        0
 66
   257
 43
1.0
 76
     1
 77
     6
 78
     2
 67
     7
 79
     5
170
     0
171
     0
290
     0
174
     0
 93
        1
 44
0.0
173
     0
291
     0
 45
0.0
1001
ACAD
1000
AcDbSavedByObjectVersion
1070
     0
  0
VISUALSTYLE
  5
32
102
{ACAD_REACTORS
330
2A
102
}
330
2A
100
AcDbVisualStyle
  2
Basic
 70
     7
 71
     1
 72
     0
 73
     1
 90
        0
 40
-0.6
 41
-30.0
 62
     5
 63
     7
421
 16777215
 74
     0
 91
        4
 64
     7
 65
   257
 75
     1
175
     1
 42
1.0
 92
        8
 66
     7
 43
1.0
 76
     1
 77
     6
 78
     2
 67
     7
 79
     5
170
     0
171
     0
290
     0
174
     0
 93
        1
 44
0.0
173
     0
291
     1
 45
0.0
1001
ACAD
1000
AcDbSavedByObjectVersion
1070
     0
  0
VISUALSTYLE
  5
36
102
{ACAD_REACTORS
330
2A
102
}
330
2A
100
AcDbVisualStyle
  2
Brighten
 70
    12
 71
     2
 72
     2
 73
     0
 90
        0
 40
-0.6
 41
-30.0
 62
     5
 63
     7
421
 16777215
 74
     1
 91
        4
 64
     7
 65
   257
 75
     1
175
     1
 42
1.0
 92
        8
 66
     7
 43
1.0
 76
     1
 77
     6
 78
     2
 67
     7
 79
     5
170
     0
171
     0
290
     0
174
     0
 93
        1
 44
50.0
173
     0
291
     1
 45
0.0
1001
ACAD
1000
AcDbSavedByObjectVersion
1070
     0
  0
VISUALSTYLE
  5
3A
102
{ACAD_REACTORS
330
2A
102
}
330
2A
100
AcDbVisualStyle
  2
ColorChange
 70
    16
 71
     2
 72
     2
 73
     3
 90
        0
 40
-0.6
 41
-30.0
 62
     5
 63
     8
421
  8421504
 74
     1
 91
        4
 64
     7
 65
   257
 75
     1
175
     1
 42
1.0
 92
        8
 66
     8
424
  8421504
 43
1.0
 76
     1
 77
     6
 78
     2
 67
     7
 79
     5
170
     0
171
     0
290
     0
174
     0
 93
        1
 44
0.0
173
     0
291
     1
 45
0.0
1001
ACAD
1000
AcDbSavedByObjectVersion
1070
     0
  0
VISUALSTYLE
  5
34
102
{ACAD_REACTORS
330
2A
102
}
330
2A
100
AcDbVisualStyle
  2
Conceptual
 70
     9
 71
     3
 72
     2
 73
     0
 90
        0
 40
-0.6
 41
-30.0
 62
     5
 63
     7
421
 16777215
 74
     2
 91
        2
 64
     7
 65
   257
 75
     1
175
     1
 42
40.0
 92
        8
 66
     7
 43
1.0
 76
     1
 77
     6
 78
     2
 67
     7
 79
     3
170
     0
171
     0
290
     0
174
     0
 93
        1
 44
0.0
173
     0
291
     0
 45
0.0
1001
ACAD
1000
AcDbSavedByObjectVersion
1070
     0
  0
VISUALSTYLE
  5
35
102
{ACAD_REACTORS
330
2A
102
}
330
2A
100
AcDbVisualStyle
  2
Dim
 70
    11
 71
     2
 72
     2
 73
     0
 90
        0
 40
-0.6
 41
-30.0
 62
     5
 63
     7
421
 16777215
 74
     1
 91
        4
 64
     7
 65
   257
 75
     1
175
     1
 42
1.0
 92
        8
 66
     7
 43
1.0
 76
     1
 77
     6
 78
     2
 67
     7
 79
     5
170
     0
171
     0
290
     0
174
     0
 93
        1
 44
-50.0
173
     0
291
     1
 45
0.0
1001
ACAD
1000
AcDbSavedByObjectVersion
1070
     0
  0
VISUALSTYLE
  5
39
102
{ACAD_REACTORS
330
2A
102
}
330
2A
100
AcDbVisualStyle
  2
Facepattern
 70
    15
 71
     2
 72
     2
 73
     0
 90
        0
 40
-0.6
 41
-30.0
 62
     5
 63
     7
421
 16777215
 74
     1
 91
        4
 64
     7
 65
   257
 75
     1
175
     1
 42
1.0
 92
        8
 66
     7
 43
1.0
 76
     1
 77
     6
 78
     2
 67
     7
 79
     5
170
     0
171
     0
290
     0
174
     0
 93
        1
 44
0.0
173
     0
291
     1
 45
0.0
1001
ACAD
1000
AcDbSavedByObjectVersion
1070
     0
  0
VISUALSTYLE
  5
2B
102
{ACAD_REACTORS
330
2A
102
}
330
2A
100
AcDbVisualStyle
  2
Flat
 70
     0
 71
     2
 72
     1
 73
     1
 90
        2
 40
-0.6
 41
30.0
 62
     5
 63
     7
421
 16777215
 74
     0
 91
        4
 64
     7
 65
   257
 75
     1
175
     1
 42
1.0
 92
        8
 66
     7
 43
1.0
 76
     1
 77
     6
 78
     2
 67
     7
 79
     5
170
     0
171
     0
290
     0
174
     0
 93
       13
 44
0.0
173
     0
291
     1
 45
0.0
1001
ACAD
1000
AcDbSavedByObjectVersion
1070
     0
  0
VISUALSTYLE
  5
2C
102
{ACAD_REACTORS
330
2A
102
}
330
2A
100
AcDbVisualStyle
  2
FlatWithEdges
 70
     1
 71
     2
 72
     1
 73
     1
 90
        2
 40
-0.6
 41
30.0
 62
     5
 63
     7
421
 16777215
 74
     1
 91
        4
 64
     7
 65
   257
 75
     1
175
     1
 42
1.0
 92
        0
 66
   257
 43
1.0
 76
     1
 77
     6
 78
     2
 67
     7
 79
     5
170
     0
171
     0
290
     0
174
     0
 93
       13
 44
0.0
173
     0
291
     1
 45
0.0
1001
ACAD
1000
AcDbSavedByObjectVersion
1070
     0
  0
VISUALSTYLE
  5
2D
102
{ACAD_REACTORS
330
2A
102
}
330
2A
100
AcDbVisualStyle
  2
Gouraud
 70
     2
 71
     2
 72
     2
 73
     1
 90
        2
 40
-0.6
 41
30.0
 62
     5
 63
     7
421
 16777215
 74
     0
 91
        4
 64
     7
 65
   257
 75
     1
175
     1
 42
1.0
 92
        0
 66
     7
 43
1.0
 76
     1
 77
     6
 78
     2
 67
     7
 79
     5
170
     0
171
     0
290
     0
174
     0
 93
       13
 44
0.0
173
     0
291
     1
 45
0.0
1001
ACAD
1000
AcDbSavedByObjectVersion
1070
     0
  0
VISUALSTYLE
  5
2E
102
{ACAD_REACTORS
330
2A
102
}
330
2A
100
AcDbVisualStyle
  2
GouraudWithEdges
 70
     3
 71
     2
 72
     2
 73
     1
 90
        2
 40
-0.6
 41
30.0
 62
     5
 63
     7
421
 16777215
 74
     1
 91
        4
 64
     7
 65
   257
 75
     1
175
     1
 42
1.0
 92
        0
 66
   257
 43
1.0
 76
     1
 77
     6
 78
     2
 67
     7
 79
     5
170
     0
171
     0
290
     0
174
     0
 93
       13
 44
0.0
173
     0
291
     1
 45
0.0
1001
ACAD
1000
AcDbSavedByObjectVersion
1070
     0
  0
VISUALSTYLE
  5
38
102
{ACAD_REACTORS
330
2A
102
}
330
2A
100
AcDbVisualStyle
  2
Linepattern
 70
    14
 71
     2
 72
     2
 73
     0
 90
        0
 40
-0.6
 41
-30.0
 62
     5
 63
     7
421
 16777215
 74
     1
 91
        4
 64
     7
 65
   257
 75
     7
175
     7
 42
1.0
 92
        8
 66
     7
 43
1.0
 76
     1
 77
     6
 78
     2
 67
     7
 79
     5
170
     0
171
     0
290
     0
174
     0
 93
        1
 44
0.0
173
     0
291
     1
 45
0.0
1001
ACAD
1000
AcDbSavedByObjectVersion
1070
     0
  0
VISUALSTYLE
  5
33
102
{ACAD_REACTORS
330
2A
102
}
330
2A
100
AcDbVisualStyle
  2
Realistic
 70
     8
 71
     2
 72
     2
 73
     0
 90
        0
 40
-0.6
 41
-30.0
 62
     5
 63
     7
421
 16777215
 74
     1
 91
        0
 64
     7
 65
   257
 75
     1
175
     1
 42
1.0
 92
        8
 66
     8
424
  7895160
 43
1.0
 76
     1
 77
     6
 78
     2
 67
     7
 79
     5
170
     0
171
     0
290
     0
174
     0
 93
       13
 44
0.0
173
     0
291
     0
 45
0.0
1001
ACAD
1000
AcDbSavedByObjectVersion
1070
     0
  0
VISUALSTYLE
  5
37
102
{ACAD_REACTORS
330
2A
102
}
330
2A
100
AcDbVisualStyle
  2
Thicken
 70
    13
 71
     2
 72
     2
 73
     0
 90
        0
 40
-0.6
 41
-30.0
 62
     5
 63
     7
421
 16777215
 74
     1
 91
        4
 64
     7
 65
   257
 75
     1
175
     1
 42
1.0
 92
       12
 66
     7
 43
1.0
 76
     1
 77
     6
 78
     2
 67
     7
 79
     5
170
     0
171
     0
290
     0
174
     0
 93
        1
 44
0.0
173
     0
291
     1
 45
0.0
1001
ACAD
1000
AcDbSavedByObjectVersion
1070
     0
  0
ENDSEC
  0
EOF
